<svg>

<symbol id="logo" width="67" height="36" viewBox="0 0 67 36" fill="none" xmlns="http://www.w3.org/2000/svg">
<g clip-path="url(#clip0_3_2605)">
<path d="M14.337 20.191C14.4381 20.191 14.5055 20.191 14.6066 20.2247H19.764C19.8651 20.2247 19.9325 20.2247 20.0337 20.191C20.2022 20.1573 20.4045 20.1236 20.573 20.0562C21.4494 19.6854 21.9213 18.6741 21.7528 17.7977C21.5842 17.0561 21.0112 16.4494 20.3033 16.2471C20.2022 16.2134 20.1348 16.2134 20.0337 16.1797C19.9325 16.1797 19.8651 16.1797 19.764 16.146H14.6066C14.3707 16.146 14.3033 16.146 14.0673 16.2134C13.8988 16.2471 13.7302 16.3482 13.5617 16.4494C12.8538 16.8876 12.4493 17.764 12.6179 18.573C12.7864 19.4157 13.528 20.0562 14.337 20.191Z" fill="#2FDF84"/>
<path d="M2.57246 4.01032C2.63988 4.04403 2.741 4.04403 2.84213 4.04403H7.99949C8.10061 4.04403 8.16803 4.04403 8.26916 4.01032C8.4377 3.97661 8.63995 3.9429 8.80849 3.87549C9.6849 3.5047 10.1568 2.49345 9.98828 1.61704C9.81973 0.875454 9.24669 0.268706 8.53882 0.0664567C8.4377 0.0327485 8.37028 0.0327485 8.26916 -0.000959732C8.16803 -0.000959732 8.10061 -0.000959732 7.99949 -0.034668H2.84213C2.60617 -0.000959732 2.53875 -0.000959732 2.3028 0.0664567C2.13425 0.100165 1.96571 0.20129 1.79717 0.302414C1.05559 0.740621 0.6848 1.61704 0.853341 2.42603C1.02188 3.26874 1.72976 3.9092 2.57246 4.01032Z" fill="#2FDF84"/>
<path d="M7.08969 16.2471C6.98857 16.2134 6.92115 16.2134 6.82003 16.1797C6.7189 16.1797 6.65149 16.1797 6.55036 16.146H3.75258C3.51662 16.146 3.4492 16.146 3.21325 16.2134C3.0447 16.2471 2.87616 16.3482 2.70762 16.4494C1.99975 16.8876 1.59525 17.764 1.76379 18.573C1.93233 19.382 2.64021 20.0562 3.48291 20.1573C3.58404 20.1573 3.65145 20.1573 3.75258 20.191H6.55036C6.65149 20.191 6.7189 20.191 6.82003 20.1573C6.98857 20.1236 7.19082 20.0899 7.35936 20.0224C8.23577 19.6517 8.70769 18.6404 8.53915 17.764C8.37061 17.0561 7.79757 16.4494 7.08969 16.2471Z" fill="#2FDF84"/>
<path d="M17.1685 31.2139C17.0674 31.1802 16.9999 31.1802 16.8988 31.1465C16.7977 31.1465 16.7303 31.1465 16.6292 31.1128H13.8314C13.5954 31.1128 13.528 31.1128 13.292 31.1802C13.1235 31.2139 12.955 31.315 12.7864 31.4162C12.0785 31.8544 11.674 32.7308 11.8426 33.5398C12.0111 34.3488 12.719 35.0229 13.5617 35.1241C13.6628 35.1241 13.7302 35.1241 13.8314 35.1578H16.6292C16.7303 35.1578 16.7977 35.1578 16.8988 35.1241C17.0674 35.0904 17.2696 35.0567 17.4382 34.9892C18.3146 34.6185 18.7865 33.6072 18.6179 32.7308C18.4494 32.0229 17.8764 31.4162 17.1685 31.2139Z" fill="#2FDF84"/>
<path d="M66.1799 9.54041V9.5067C66.1799 9.47299 66.1799 9.40558 66.1799 9.37187C66.1461 9.06849 65.9776 8.76512 65.7754 8.52916C65.6742 8.39433 65.6068 8.36062 65.5057 8.29321C65.472 8.29321 65.472 8.2595 65.4383 8.2595C65.4383 8.2595 65.4046 8.2595 65.4046 8.22579L51.5168 0.203226C51.4493 0.169518 51.3819 0.13581 51.3145 0.102101C51.1123 0.0346848 51.0786 0.0346848 50.8426 0.000976562C50.7752 0.000976562 50.7078 0.000976562 50.6404 0.000976562C50.6066 0.000976562 50.6066 0.000976562 50.5729 0.000976562H16.6287C16.3928 0.000976562 16.3254 0.000976562 16.0894 0.0683931C15.9209 0.102101 15.7523 0.203226 15.5838 0.304351C14.8759 0.742558 14.4714 1.61897 14.6399 2.42797C14.8085 3.23697 15.5164 3.91113 16.3591 4.01226C16.4602 4.01226 16.5276 4.01226 16.6287 4.04597H25.9996C26.1007 4.04597 26.2356 4.07967 26.3367 4.07967C26.4041 4.07967 26.4715 4.11338 26.539 4.11338C27.2468 4.31563 27.8199 4.92238 27.9884 5.66396C28.1907 6.54038 27.685 7.55162 26.8086 7.92241C26.6401 7.98983 26.4715 8.05725 26.2693 8.05725C26.1682 8.05725 26.1007 8.05725 25.9996 8.09096H2.84206C2.6061 8.09096 2.53868 8.09096 2.30272 8.15837C2.13418 8.19208 1.96564 8.2932 1.7971 8.39433C1.08923 8.83254 0.684728 9.70895 0.853269 10.5179C1.02181 11.3269 1.72968 12.0011 2.57239 12.1022C2.67351 12.1022 2.74093 12.1022 2.84206 12.1359H30.7525C30.8536 12.1359 30.9884 12.1697 31.0896 12.1697C31.157 12.1697 31.2244 12.2034 31.2918 12.2034C31.9997 12.4056 32.5727 13.0124 32.7413 13.7539C32.9435 14.6304 32.4379 15.6416 31.5615 16.0124C31.3929 16.0798 31.2244 16.1472 31.0222 16.1472C30.921 16.1472 30.8536 16.1472 30.7525 16.1809H26.5727C26.3367 16.1809 26.2693 16.1809 26.0333 16.2484C25.8648 16.2821 25.6962 16.3832 25.5277 16.4843C24.8198 16.9225 24.4153 17.7989 24.5839 18.6079C24.7524 19.4169 25.4603 20.0911 26.303 20.1922C26.4041 20.1922 26.4715 20.1922 26.5727 20.2259H36.7863C37.6964 20.2259 38.4043 19.4843 38.4043 18.6079V12.8775C38.4043 12.6416 38.6739 12.5067 38.8762 12.6079L46.0223 16.754C47.9437 17.8663 49.1235 19.9225 49.1235 22.1473V25.7541C49.1235 28.0462 46.6291 29.4957 44.6403 28.3496L38.775 24.9451C38.5728 24.844 38.438 24.6417 38.3705 24.4057C38.2357 23.6642 37.5616 23.1248 36.7863 23.1248H11.2354C10.9995 23.1248 10.932 23.1248 10.6961 23.1922C10.5275 23.226 10.359 23.3271 10.1905 23.4282C9.48258 23.8664 9.07808 24.7428 9.24662 25.5518C9.41516 26.3608 10.123 27.035 10.9657 27.1361C11.0669 27.1361 11.1343 27.1361 11.2354 27.1698H28.494C28.5952 27.1698 28.73 27.2035 28.8311 27.2035C28.8985 27.2035 28.9659 27.2372 29.0334 27.2372C29.7412 27.4395 30.3143 28.0462 30.4828 28.7878C30.6851 29.6642 30.1794 30.6755 29.303 31.0463C29.1345 31.1137 28.9659 31.1811 28.7637 31.1811C28.6626 31.1811 28.5952 31.1811 28.494 31.2148H23.4041C23.1681 31.2148 23.1007 31.2148 22.8648 31.2822C22.6962 31.3159 22.5277 31.4171 22.3591 31.5182C21.6513 31.9564 21.2468 32.8328 21.4153 33.6418C21.5838 34.4508 22.2917 35.125 23.1344 35.2261C23.2355 35.2261 23.303 35.2261 23.4041 35.2598H50.6404H50.6741C50.7078 35.2598 50.7078 35.2598 50.7415 35.2598C50.7752 35.2598 50.8089 35.2598 50.8426 35.2598C50.8763 35.2598 50.91 35.2598 50.9774 35.2598C51.0786 35.2261 51.2134 35.2261 51.3145 35.1587C51.3482 35.1587 51.3819 35.125 51.4156 35.0913C51.5505 35.0238 51.6516 34.9564 51.7527 34.889L65.4046 26.9676C65.472 26.9339 65.5394 26.9002 65.6068 26.8327C65.8428 26.6305 66.045 26.3608 66.1461 26.0575C66.2136 25.8552 66.2136 25.7878 66.2136 25.5855V9.57412C66.1799 9.57412 66.1799 9.57412 66.1799 9.54041ZM51.2808 3.70888L61.0562 9.33816C61.2247 9.43929 61.2247 9.70895 61.0562 9.81008L59.1348 10.9224C58.7977 11.1247 58.3932 11.1247 58.0899 10.9224L48.3482 5.29317C48.1459 5.15834 48.1459 4.88867 48.3482 4.75384L50.2021 3.67518C50.5392 3.50663 50.9437 3.50663 51.2808 3.70888ZM50.2021 15.4731L40.4605 9.84378C40.2582 9.70895 40.2582 9.43929 40.4605 9.30445L42.3144 8.22579C42.6515 8.02354 43.056 8.02354 43.3931 8.22579L53.1685 13.8551C53.337 13.9562 53.337 14.2259 53.1685 14.327L51.2471 15.4394C50.9437 15.6416 50.5392 15.6416 50.2021 15.4731ZM63.045 24.2709C63.045 24.5406 62.9102 24.7765 62.6742 24.9114L53.4044 30.271C52.9325 30.5406 52.3258 30.2036 52.3258 29.6305V18.9113C52.3258 18.6416 52.4606 18.4057 52.6966 18.2708L55.191 16.8214C55.191 18.6753 55.191 21.3383 55.191 22.6529C55.191 23.0237 55.5955 23.2597 55.8988 23.0574L59.7753 20.8327C60.0112 20.6978 60.1798 20.4282 60.1798 20.1585V13.9562L61.9663 12.9449C62.4382 12.6753 63.045 13.0124 63.045 13.5854V24.2709Z" fill="#00B871"/>
</g>
<defs>
<clipPath id="clip0_3_2605">
<rect width="65.3603" height="35.1914" fill="white" transform="translate(0.819824)"/>
</clipPath>
</defs>
</symbol>

<symbol id="street-delivery" width="128" height="128" viewBox="0 0 128 128" fill="none" xmlns="http://www.w3.org/2000/svg">
<path d="M124.103 72.3733C110.656 51.7831 112.085 30.6773 105.604 20.7538C99.1219 10.8302 79.8045 -6.27913 34.1619 23.5342C-11.4808 53.3475 0.128094 85.7564 7.26054 96.6684C40.6401 147.769 147.922 108.839 124.103 72.3733Z" fill="#F7F7F8"/>
<path d="M20.2622 11.5137L25.2905 6.48536L27.8047 8.99951L22.7764 14.0278L20.2622 11.5137Z" fill="#D2D6DC"/>
<path d="M5.80518 25.9683L10.8335 20.9399L13.3476 23.4541L8.31933 28.4824L5.80518 25.9683Z" fill="#D2D6DC"/>
<path d="M5.80621 8.36865L8.32037 5.85449L13.3487 10.8828L10.8345 13.397L5.80621 8.36865Z" fill="#D2D6DC"/>
<path d="M96.8885 60.8747C93.9481 60.8747 91.5552 58.4818 91.5552 55.5413C91.5552 52.6009 93.9481 50.208 96.8885 50.208C99.829 50.208 102.222 52.6009 102.222 55.5413C102.222 58.4818 99.829 60.8747 96.8885 60.8747ZM96.8885 53.7636C95.9107 53.7636 95.1107 54.56 95.1107 55.5413C95.1107 56.5227 95.9107 57.3191 96.8885 57.3191C97.8663 57.3191 98.6663 56.5227 98.6663 55.5413C98.6663 54.56 97.8663 53.7636 96.8885 53.7636Z" fill="#D2D6DC"/>
<path d="M69.4397 59.5557H29.333V72.0001V96.889H41.7775H54.1508H80.8886V72.1779V59.5557H69.4397Z" fill="#F7F7F8"/>
<path d="M89.778 72.1777H80.8892V96.8888H84.4447H96.8145H104V86.4C104 78.5457 97.6323 72.1777 89.778 72.1777Z" fill="#2FDF84"/>
<path d="M48.0001 104C51.4365 104 54.2223 101.214 54.2223 97.7779C54.2223 94.3414 51.4365 91.5557 48.0001 91.5557C44.5636 91.5557 41.7778 94.3414 41.7778 97.7779C41.7778 101.214 44.5636 104 48.0001 104Z" fill="#F7F7F8"/>
<path d="M90.6666 104C94.103 104 96.8888 101.214 96.8888 97.7779C96.8888 94.3414 94.103 91.5557 90.6666 91.5557C87.2301 91.5557 84.4443 94.3414 84.4443 97.7779C84.4443 101.214 87.2301 104 90.6666 104Z" fill="#F7F7F8"/>
<path d="M57.7778 61.3333H27.5556C25.5929 61.3333 24 59.7404 24 57.7778V27.5556C24 25.5929 25.5929 24 27.5556 24H57.7778C59.7404 24 61.3333 25.5929 61.3333 27.5556V57.7778C61.3333 59.7404 59.7404 61.3333 57.7778 61.3333Z" fill="#2FDF84"/>
<path d="M38.2222 24H47.1111V36.4444H38.2222V24Z" fill="#2FDF84"/>
<path d="M37.333 59.5557H29.333V72.0001V96.889H37.333V72.0001V59.5557Z" fill="#D2D6DC"/>
<path d="M80.8892 72.1777V96.8888H84.4447H88.8892V72.1777H80.8892Z" fill="#00B871"/>
<path d="M49.7778 97.7779C49.7778 95.8721 50.6525 94.1903 52.0001 93.049C50.9156 92.1317 49.5325 91.5557 48.0001 91.5557C44.5654 91.5557 41.7778 94.3432 41.7778 97.7779C41.7778 101.213 44.5654 104 48.0001 104C49.5325 104 50.9156 103.424 52.0001 102.507C50.6525 101.365 49.7778 99.6837 49.7778 97.7779Z" fill="#D2D6DC"/>
<path d="M92.4443 97.7779C92.4443 95.8721 93.319 94.1903 94.6666 93.049C93.5821 92.1317 92.199 91.5557 90.6666 91.5557C87.2319 91.5557 84.4443 94.3432 84.4443 97.7779C84.4443 101.213 87.2319 104 90.6666 104C92.199 104 93.5821 103.424 94.6666 102.507C93.319 101.365 92.4443 99.6837 92.4443 97.7779Z" fill="#D2D6DC"/>
<path d="M32 57.7778V27.5556C32 25.5929 33.5929 24 35.5556 24H27.5556C25.5929 24 24 25.5929 24 27.5556V57.7778C24 59.7404 25.5929 61.3333 27.5556 61.3333H35.5556C33.5929 61.3333 32 59.7404 32 57.7778Z" fill="#00B871"/>
<path d="M57.7775 63.9997H27.5552C24.1241 63.9997 21.333 61.2086 21.333 57.7775V27.5552C21.333 24.1241 24.1241 21.333 27.5552 21.333H57.7775C61.2086 21.333 63.9997 24.1241 63.9997 27.5552V57.7775C63.9997 61.2086 61.2086 63.9997 57.7775 63.9997ZM27.5552 26.6663C27.0646 26.6663 26.6663 27.0646 26.6663 27.5552V57.7775C26.6663 58.2681 27.0646 58.6663 27.5552 58.6663H57.7775C58.2681 58.6663 58.6663 58.2681 58.6663 57.7775V27.5552C58.6663 27.0646 58.2681 26.6663 57.7775 26.6663H27.5552Z" fill="#161E2E"/>
<path d="M47.1112 39.1108H38.2223C36.7503 39.1108 35.5557 37.9161 35.5557 36.4441V23.9997C35.5557 22.5277 36.7503 21.333 38.2223 21.333H47.1112C48.5832 21.333 49.7779 22.5277 49.7779 23.9997V36.4441C49.7779 37.9161 48.5832 39.1108 47.1112 39.1108ZM40.889 33.7775H44.4446V26.6663H40.889V33.7775Z" fill="#161E2E"/>
<path d="M47.1108 49.7778H54.222V55.1112H47.1108V49.7778Z" fill="#161E2E"/>
<path d="M44.4448 99.5552H29.3337C27.8617 99.5552 26.667 98.3606 26.667 96.8886V69.333H32.0003V94.2219H44.4448V99.5552Z" fill="#161E2E"/>
<path d="M80.8888 99.5558H51.4844V94.2225H78.2222V62.2225H69.2266V56.8892H80.8888C82.3608 56.8892 83.5555 58.0838 83.5555 59.5558V96.8892C83.5555 98.3612 82.3608 99.5558 80.8888 99.5558Z" fill="#161E2E"/>
<path d="M104 99.5557H94.1475V94.2223H101.333V86.4001C101.333 80.0286 96.1493 74.8446 89.7777 74.8446H83.5555V94.2223H87.1111V99.5557H80.8888C79.4168 99.5557 78.2222 98.361 78.2222 96.889V72.1779C78.2222 70.7059 79.4168 69.5112 80.8888 69.5112H89.7777C99.0897 69.5112 106.667 77.0881 106.667 86.4001V96.889C106.667 98.361 105.472 99.5557 104 99.5557Z" fill="#161E2E"/>
<path d="M47.9997 106.667C43.0966 106.667 39.1108 102.678 39.1108 97.778C39.1108 92.8785 43.0966 88.8892 47.9997 88.8892C52.9028 88.8892 56.8886 92.8785 56.8886 97.778C56.8886 102.678 52.9028 106.667 47.9997 106.667ZM47.9997 94.2225C46.0371 94.2225 44.4442 95.8189 44.4442 97.778C44.4442 99.7372 46.0371 101.334 47.9997 101.334C49.9624 101.334 51.5553 99.7372 51.5553 97.778C51.5553 95.8189 49.9624 94.2225 47.9997 94.2225Z" fill="#161E2E"/>
<path d="M90.6667 106.667C85.7636 106.667 81.7778 102.678 81.7778 97.778C81.7778 92.8785 85.7636 88.8892 90.6667 88.8892C95.5698 88.8892 99.5556 92.8785 99.5556 97.778C99.5556 102.678 95.5698 106.667 90.6667 106.667ZM90.6667 94.2225C88.7041 94.2225 87.1112 95.8189 87.1112 97.778C87.1112 99.7372 88.7041 101.334 90.6667 101.334C92.6294 101.334 94.2223 99.7372 94.2223 97.778C94.2223 95.8189 92.6294 94.2225 90.6667 94.2225Z" fill="#161E2E"/>
</symbol>

<symbol id="city-delivery" width="128" height="128" viewBox="0 0 128 128" fill="none" xmlns="http://www.w3.org/2000/svg">
<path d="M28.8498 19.7831C22.4321 43.5235 5.72451 56.5013 2.63117 67.9431C-0.46216 79.3848 -0.380385 105.188 52.249 119.417C104.878 133.646 121.341 103.413 124.74 90.8266C140.672 31.904 40.217 -22.2649 28.8498 19.7831Z" fill="#F7F7F8"/>
<path d="M108.885 43.5558C105.945 43.5558 103.552 41.1629 103.552 38.2225C103.552 35.282 105.945 32.8892 108.885 32.8892C111.826 32.8892 114.219 35.282 114.219 38.2225C114.219 41.1629 111.826 43.5558 108.885 43.5558ZM108.885 36.4447C107.904 36.4447 107.107 37.2447 107.107 38.2225C107.107 39.2003 107.904 40.0003 108.885 40.0003C109.867 40.0003 110.663 39.2003 110.663 38.2225C110.663 37.2447 109.867 36.4447 108.885 36.4447Z" fill="#D2D6DC"/>
<path d="M9.21701 17.8154L11.7312 15.3013L16.7595 20.3296L14.2453 22.8437L9.21701 17.8154Z" fill="#D2D6DC"/>
<path d="M8.58844 34.7876L13.6168 29.7593L16.1309 32.2734L11.1026 37.3018L8.58844 34.7876Z" fill="#D2D6DC"/>
<path d="M23.0427 20.3315L28.071 15.3032L30.5851 17.8174L25.5568 22.8457L23.0427 20.3315Z" fill="#D2D6DC"/>
<path d="M73.7779 54.2222V93.3333H80.0001H94.2223H100.445C102.407 93.3333 104 91.7404 104 89.7777V54.2222H73.7779Z" fill="#F7F7F8"/>
<path d="M59.5553 34.667H21.3331V93.3337H63.1108V38.2225C63.1108 36.2599 61.518 34.667 59.5553 34.667Z" fill="#2FDF84"/>
<path d="M87.111 100.444C90.5475 100.444 93.3332 97.6587 93.3332 94.2222C93.3332 90.7858 90.5475 88 87.111 88C83.6746 88 80.8888 90.7858 80.8888 94.2222C80.8888 97.6587 83.6746 100.444 87.111 100.444Z" fill="#F7F7F8"/>
<path d="M51.5554 100.444C54.9918 100.444 57.7776 97.6587 57.7776 94.2222C57.7776 90.7858 54.9918 88 51.5554 88C48.1189 88 45.3331 90.7858 45.3331 94.2222C45.3331 97.6587 48.1189 100.444 51.5554 100.444Z" fill="#F7F7F8"/>
<path d="M30.2223 100.444C33.6587 100.444 36.4445 97.6587 36.4445 94.2222C36.4445 90.7858 33.6587 88 30.2223 88C26.7858 88 24.0001 90.7858 24.0001 94.2222C24.0001 97.6587 26.7858 100.444 30.2223 100.444Z" fill="#F7F7F8"/>
<path d="M86.2227 64.8892H104V77.3336H86.2227V64.8892Z" fill="#2FDF84"/>
<path d="M77.3334 34.6665H73.7779V54.2221H96.889C96.889 43.4203 88.1352 34.6665 77.3334 34.6665Z" fill="#2FDF84"/>
<path d="M73.7779 54.2222V93.3333H80.0001H81.7779V54.2222H73.7779Z" fill="#D2D6DC"/>
<path d="M21.3331 34.667H29.3331V93.3337H21.3331V34.667Z" fill="#00B871"/>
<path d="M88.8888 94.2222C88.8888 92.3164 89.7635 90.6347 91.111 89.4933C90.0266 88.576 88.6435 88 87.111 88C83.6728 88 80.8888 90.7876 80.8888 94.2222C80.8888 97.6569 83.6728 100.444 87.111 100.444C88.6435 100.444 90.0266 99.8684 91.111 98.9511C89.7635 97.8098 88.8888 96.128 88.8888 94.2222Z" fill="#D2D6DC"/>
<path d="M53.3331 94.2222C53.3331 92.3164 54.2078 90.6347 55.5554 89.4933C54.4709 88.576 53.0878 88 51.5554 88C48.1207 88 45.3331 90.7876 45.3331 94.2222C45.3331 97.6569 48.1207 100.444 51.5554 100.444C53.0878 100.444 54.4709 99.8684 55.5554 98.9511C54.2078 97.8098 53.3331 96.128 53.3331 94.2222Z" fill="#D2D6DC"/>
<path d="M32.0001 94.2222C32.0001 92.3164 32.8747 90.6347 34.2223 89.4933C33.1378 88.576 31.7547 88 30.2223 88C26.7876 88 24.0001 90.7876 24.0001 94.2222C24.0001 97.6569 26.7876 100.444 30.2223 100.444C31.7547 100.444 33.1378 99.8684 34.2223 98.9511C32.8747 97.8098 32.0001 96.128 32.0001 94.2222Z" fill="#D2D6DC"/>
<path d="M86.2227 64.8892H94.2227V77.3336H86.2227V64.8892Z" fill="#00B871"/>
<path d="M77.3334 34.6665H73.7779V54.2221H81.7779V35.1927C80.3485 34.8621 78.8659 34.6665 77.3334 34.6665Z" fill="#00B871"/>
<path d="M46.2223 45.333H51.5556V75.5552H46.2223V45.333Z" fill="#161E2E"/>
<path d="M28.4443 45.333H33.7776V75.5552H28.4443V45.333Z" fill="#161E2E"/>
<path d="M87.1112 103.111C82.2117 103.111 78.2224 99.1255 78.2224 94.2224C78.2224 89.3193 82.2117 85.3335 87.1112 85.3335C92.0108 85.3335 96.0001 89.3193 96.0001 94.2224C96.0001 99.1255 92.0108 103.111 87.1112 103.111ZM87.1112 90.6668C85.1521 90.6668 83.5557 92.2597 83.5557 94.2224C83.5557 96.1851 85.1521 97.7779 87.1112 97.7779C89.0704 97.7779 90.6668 96.1851 90.6668 94.2224C90.6668 92.2597 89.0704 90.6668 87.1112 90.6668Z" fill="#161E2E"/>
<path d="M51.5556 103.111C46.656 103.111 42.6667 99.1255 42.6667 94.2224C42.6667 89.3193 46.656 85.3335 51.5556 85.3335C56.4551 85.3335 60.4445 89.3193 60.4445 94.2224C60.4445 99.1255 56.4551 103.111 51.5556 103.111ZM51.5556 90.6668C49.5965 90.6668 48 92.2597 48 94.2224C48 96.1851 49.5965 97.7779 51.5556 97.7779C53.5147 97.7779 55.1111 96.1851 55.1111 94.2224C55.1111 92.2597 53.5147 90.6668 51.5556 90.6668Z" fill="#161E2E"/>
<path d="M30.222 103.111C25.3225 103.111 21.3331 99.1255 21.3331 94.2224C21.3331 89.3193 25.3225 85.3335 30.222 85.3335C35.1216 85.3335 39.1109 89.3193 39.1109 94.2224C39.1109 99.1255 35.1216 103.111 30.222 103.111ZM30.222 90.6668C28.2629 90.6668 26.6665 92.2597 26.6665 94.2224C26.6665 96.1851 28.2629 97.7779 30.222 97.7779C32.1811 97.7779 33.7776 96.1851 33.7776 94.2224C33.7776 92.2597 32.1811 90.6668 30.222 90.6668Z" fill="#161E2E"/>
<path d="M104 80.0004H86.2224C84.7504 80.0004 83.5557 78.8058 83.5557 77.3338V64.8893C83.5557 63.4173 84.7504 62.2227 86.2224 62.2227H104V67.556H88.8891V74.6671H104V80.0004Z" fill="#161E2E"/>
<path d="M37.3335 90.6665H44.4446V95.9998H37.3335V90.6665Z" fill="#161E2E"/>
<path d="M63.1112 96.0007H56.0001V90.6674H60.4446V38.223C60.4446 37.7323 60.0464 37.3341 59.5557 37.3341H21.3335V32.0007H59.5557C62.9868 32.0007 65.7779 34.7918 65.7779 38.223V93.3341C65.7779 94.8061 64.5832 96.0007 63.1112 96.0007Z" fill="#161E2E"/>
<path d="M100.444 96.0001H94.222V90.6668H100.444C100.935 90.6668 101.333 90.2686 101.333 89.7779V56.889H76.4442V90.6668H79.9998V96.0001H73.7776C72.3056 96.0001 71.1109 94.8054 71.1109 93.3334V54.2223C71.1109 52.7503 72.3056 51.5557 73.7776 51.5557H104C105.472 51.5557 106.666 52.7503 106.666 54.2223V89.7779C106.666 93.209 103.875 96.0001 100.444 96.0001Z" fill="#161E2E"/>
<path d="M99.5553 54.2222H94.222C94.222 44.9102 86.6451 37.3333 77.3331 37.3333H76.4442V54.2222H71.1109V34.6667C71.1109 33.1947 72.3056 32 73.7776 32H77.3331C89.5856 32 99.5553 41.9698 99.5553 54.2222Z" fill="#161E2E"/>
<path d="M62.2227 90.6665H72.8893V95.9998H62.2227V90.6665Z" fill="#161E2E"/>
</symbol>

<symbol id="real-time-tracking" width="129" height="128" viewBox="0 0 129 128" fill="none" xmlns="http://www.w3.org/2000/svg">
<path d="M30.285 14.8157C54.8788 14.8157 71.7677 2.07617 83.6183 2.07617C95.469 2.07617 120.358 8.88862 120.358 63.406C120.358 117.923 86.8752 125.923 73.8406 125.923C12.8023 125.927 -13.2705 14.8157 30.285 14.8157Z" fill="#F7F7F8"/>
<path d="M46.2777 12.583H53.3888V16.1386H46.2777V12.583Z" fill="#D2D6DC"/>
<path d="M25.8333 12.583H32.9444V16.1386H25.8333V12.583Z" fill="#D2D6DC"/>
<path d="M38.2777 0.138672H41.8333V7.24978H38.2777V0.138672Z" fill="#D2D6DC"/>
<path d="M100.745 62.6667C97.8048 62.6667 95.412 60.2738 95.412 57.3333C95.412 54.3929 97.8048 52 100.745 52C103.686 52 106.079 54.3929 106.079 57.3333C106.079 60.2738 103.686 62.6667 100.745 62.6667ZM100.745 55.5556C99.7675 55.5556 98.9675 56.3556 98.9675 57.3333C98.9675 58.3111 99.7675 59.1111 100.745 59.1111C101.723 59.1111 102.523 58.3111 102.523 57.3333C102.523 56.3556 101.727 55.5556 100.745 55.5556Z" fill="#D2D6DC"/>
<path d="M69.9401 59.5557H29.8334V72.0001V96.889H42.2778H54.6512H81.389V72.1779V59.5557H69.9401Z" fill="#F7F7F8"/>
<path d="M90.2777 72.1777H81.3888V96.8888H84.9444H97.3141H104.5V86.4C104.5 78.5457 98.1319 72.1777 90.2777 72.1777Z" fill="#2FDF84"/>
<path d="M48.5 104C51.9365 104 54.7222 101.214 54.7222 97.7779C54.7222 94.3414 51.9365 91.5557 48.5 91.5557C45.0636 91.5557 42.2778 94.3414 42.2778 97.7779C42.2778 101.214 45.0636 104 48.5 104Z" fill="#F7F7F8"/>
<path d="M91.1666 104C94.6031 104 97.3888 101.214 97.3888 97.7779C97.3888 94.3414 94.6031 91.5557 91.1666 91.5557C87.7302 91.5557 84.9444 94.3414 84.9444 97.7779C84.9444 101.214 87.7302 104 91.1666 104Z" fill="#F7F7F8"/>
<path d="M54.7222 39.3316C54.7222 51.9573 39.6111 64.8889 39.6111 64.8889C39.6111 64.8889 24.5 51.9609 24.5 39.3316C24.5 30.8658 31.2662 24 39.6111 24C47.956 24 54.7222 30.8658 54.7222 39.3316Z" fill="#2FDF84"/>
<path d="M39.611 43.5554C42.0656 43.5554 44.0555 41.5655 44.0555 39.1109C44.0555 36.6563 42.0656 34.6665 39.611 34.6665C37.1564 34.6665 35.1666 36.6563 35.1666 39.1109C35.1666 41.5655 37.1564 43.5554 39.611 43.5554Z" fill="#F7F7F8"/>
<path d="M37.8334 59.5557H29.8334V72.0001V96.889H37.8334V72.0001V59.5557Z" fill="#D2D6DC"/>
<path d="M81.3888 72.1777V96.8888H84.9443H89.3888V72.1777H81.3888Z" fill="#00B871"/>
<path d="M50.2778 97.7779C50.2778 95.8721 51.1525 94.1903 52.5 93.049C51.4156 92.1317 50.0325 91.5557 48.5 91.5557C45.0654 91.5557 42.2778 94.3432 42.2778 97.7779C42.2778 101.213 45.0654 104 48.5 104C50.0325 104 51.4156 103.424 52.5 102.507C51.1525 101.365 50.2778 99.6837 50.2778 97.7779Z" fill="#D2D6DC"/>
<path d="M92.9444 97.7779C92.9444 95.8721 93.8191 94.1903 95.1666 93.049C94.0822 92.1317 92.6991 91.5557 91.1666 91.5557C87.732 91.5557 84.9444 94.3432 84.9444 97.7779C84.9444 101.213 87.732 104 91.1666 104C92.6991 104 94.0822 103.424 95.1666 102.507C93.8191 101.365 92.9444 99.6837 92.9444 97.7779Z" fill="#D2D6DC"/>
<path d="M32.5 39.3316C32.5 32.2773 37.2218 26.4 43.6111 24.6116C42.3276 24.2524 41.0049 24 39.6111 24C31.2662 24 24.5 30.8658 24.5 39.3316C24.5 51.9573 39.6111 64.8889 39.6111 64.8889C39.6111 64.8889 41.3391 63.3991 43.6111 60.9707C39.1347 56.192 32.5 47.7084 32.5 39.3316Z" fill="#00B871"/>
<path d="M39.6112 67.5557C38.9925 67.5557 38.3738 67.3424 37.8796 66.9157C37.2218 66.3539 21.8334 53.0313 21.8334 39.3317C21.8334 29.4082 29.8085 21.3335 39.6112 21.3335C49.4139 21.3335 57.389 29.4082 57.389 39.3317C57.389 53.0313 42.0005 66.3539 41.3427 66.9157C40.8485 67.3424 40.2299 67.5557 39.6112 67.5557ZM39.6112 26.6668C32.749 26.6668 27.1667 32.3486 27.1667 39.3317C27.1667 48.1566 35.8281 57.5611 39.6112 61.2482C43.3943 57.5611 52.0556 48.1566 52.0556 39.3317C52.0556 32.3486 46.4734 26.6668 39.6112 26.6668Z" fill="#161E2E"/>
<path d="M39.611 46.2222C35.6892 46.2222 32.4999 43.0329 32.4999 39.1111C32.4999 35.1893 35.6892 32 39.611 32C43.5328 32 46.7221 35.1893 46.7221 39.1111C46.7221 43.0329 43.5328 46.2222 39.611 46.2222ZM39.611 37.3333C38.6332 37.3333 37.8332 38.1333 37.8332 39.1111C37.8332 40.0889 38.6332 40.8889 39.611 40.8889C40.5888 40.8889 41.3888 40.0889 41.3888 39.1111C41.3888 38.1333 40.5888 37.3333 39.611 37.3333Z" fill="#161E2E"/>
<path d="M42.2776 99.5556H29.8331C28.3611 99.5556 27.1665 98.3609 27.1665 96.8889V72H32.4998V94.2222H42.2776V99.5556Z" fill="#161E2E"/>
<path d="M81.3887 99.5553H54.6509V94.222H78.722V62.222H57.3887V56.8887H81.3887C82.8607 56.8887 84.0553 58.0833 84.0553 59.5553V96.8887C84.0553 98.3607 82.8607 99.5553 81.3887 99.5553Z" fill="#161E2E"/>
<path d="M104.5 99.5557H97.3141V94.2223H101.833V86.4001C101.833 80.0286 96.6492 74.8446 90.2777 74.8446H84.0554V94.2223H84.9443V99.5557H81.3888C79.9168 99.5557 78.7221 98.361 78.7221 96.889V72.1779C78.7221 70.7059 79.9168 69.5112 81.3888 69.5112H90.2777C99.5897 69.5112 107.167 77.0881 107.167 86.4001V96.889C107.167 98.361 105.972 99.5557 104.5 99.5557Z" fill="#161E2E"/>
<path d="M48.5 106.666C43.5969 106.666 39.6111 102.681 39.6111 97.7776C39.6111 92.8745 43.5969 88.8887 48.5 88.8887C53.4031 88.8887 57.3889 92.8745 57.3889 97.7776C57.3889 102.681 53.4031 106.666 48.5 106.666ZM48.5 94.222C46.5373 94.222 44.9444 95.8149 44.9444 97.7776C44.9444 99.7402 46.5373 101.333 48.5 101.333C50.4627 101.333 52.0556 99.7402 52.0556 97.7776C52.0556 95.8149 50.4627 94.222 48.5 94.222Z" fill="#161E2E"/>
<path d="M91.1666 106.666C86.2635 106.666 82.2777 102.681 82.2777 97.7776C82.2777 92.8745 86.2635 88.8887 91.1666 88.8887C96.0697 88.8887 100.055 92.8745 100.055 97.7776C100.055 102.681 96.0697 106.666 91.1666 106.666ZM91.1666 94.222C89.2039 94.222 87.611 95.8149 87.611 97.7776C87.611 99.7402 89.2039 101.333 91.1666 101.333C93.1293 101.333 94.7222 99.7402 94.7222 97.7776C94.7222 95.8149 93.1293 94.222 91.1666 94.222Z" fill="#161E2E"/>
</symbol>

<symbol id="country-and-worldwide" width="128" height="128" viewBox="0 0 128 128" fill="none" xmlns="http://www.w3.org/2000/svg">
<path d="M95.936 13.9168C71.3457 14.3754 54.2222 1.95233 42.3715 2.17633C30.5208 2.40033 5.76352 9.675 6.78396 64.1852C7.8044 118.695 41.4293 126.066 54.464 125.824C115.492 124.683 139.481 13.1026 95.936 13.9168Z" fill="#F7F7F8"/>
<path d="M107.1 50.6667C104.16 50.6667 101.767 48.2738 101.767 45.3333C101.767 42.3929 104.16 40 107.1 40C110.041 40 112.434 42.3929 112.434 45.3333C112.434 48.2738 110.041 50.6667 107.1 50.6667ZM107.1 43.5556C106.123 43.5556 105.323 44.352 105.323 45.3333C105.323 46.3147 106.123 47.1111 107.1 47.1111C108.078 47.1111 108.878 46.3147 108.878 45.3333C108.878 44.352 108.078 43.5556 107.1 43.5556Z" fill="#D2D6DC"/>
<path d="M12.4442 0H15.9998V7.11111H12.4442V0Z" fill="#D2D6DC"/>
<path d="M12.4442 20.4443H15.9998V27.5554H12.4442V20.4443Z" fill="#D2D6DC"/>
<path d="M-6.10352e-05 11.5557H7.11105V15.1112H-6.10352e-05V11.5557Z" fill="#D2D6DC"/>
<path d="M20.4443 11.5557H27.5554V15.1112H20.4443V11.5557Z" fill="#D2D6DC"/>
<path d="M89.7776 54.2219V45.333H23.9999V86.2219C23.9999 88.1846 25.5928 89.7775 27.5554 89.7775H89.7776V54.2219Z" fill="#F7F7F8"/>
<path d="M79.0435 25.8418C78.4177 24.7076 77.2266 24 75.9288 24H37.0382C35.7013 24 34.4746 24.7502 33.8702 25.9413L23.9999 45.3333H89.7777L79.0435 25.8418Z" fill="#2FDF84"/>
<path d="M102.926 67.1004C104.373 65.7315 104.341 62.0337 102.933 60.6222C101.525 59.2142 97.8272 59.1786 96.4619 60.6293L88.0423 69.5715C87.541 70.1084 86.7943 70.3395 86.0797 70.1831L62.581 65.2053C62.0263 65.0844 61.4468 65.2515 61.045 65.6568C60.0921 66.6133 60.2841 68.2097 61.4432 68.9102L77.589 77.4577C78.7161 78.1368 78.9366 79.6835 78.0406 80.6506L67.9855 91.4844L62.4281 89.056C61.6459 88.7146 60.7321 88.8853 60.1277 89.4897C59.2957 90.3217 59.3988 91.7048 60.3481 92.4017L66.4103 96.8675C66.6699 97.056 66.8939 97.2871 67.0823 97.5431L71.2139 103.207C71.9072 104.156 73.2868 104.267 74.1188 103.431C74.7232 102.827 74.8975 101.913 74.5526 101.127L72.1241 95.5662L82.9401 85.5146C83.9001 84.6257 85.4361 84.8355 86.1223 85.952L95.0681 102.492C95.7721 103.637 97.3579 103.822 98.3072 102.873C98.7197 102.46 98.8868 101.863 98.7552 101.298L93.3543 77.5502C93.1837 76.8249 93.4112 76.0604 93.9588 75.552L102.926 67.1004Z" fill="#2FDF84"/>
<path d="M31.9999 86.2219V45.333H23.9999V86.2219C23.9999 88.1846 25.5928 89.7775 27.5554 89.7775H35.5554C33.5928 89.7775 31.9999 88.1846 31.9999 86.2219Z" fill="#D2D6DC"/>
<path d="M45.0382 24H37.0382C35.7013 24 34.4746 24.7502 33.8702 25.9413L23.9999 45.3333H31.9999L41.8702 25.9413C42.4782 24.7502 43.7013 24 45.0382 24Z" fill="#00B871"/>
<path d="M61.4363 68.9103L77.5821 77.4578C78.7092 78.1369 78.9296 79.6836 78.0336 80.6507L70.2505 89.0383C70.3074 89.0561 70.3679 89.0347 70.4212 89.0561L75.9785 91.4845L86.0336 80.6507C86.9296 79.6836 86.7092 78.1369 85.5821 77.4578L69.4363 68.9103C68.5688 68.3876 68.2416 67.3565 68.5368 66.4712L62.5776 65.2089C62.023 65.0881 61.4434 65.2552 61.0416 65.6605C60.0852 66.6134 60.2808 68.2134 61.4363 68.9103Z" fill="#00B871"/>
<path d="M94.0802 70.1866C94.7948 70.3431 95.5415 70.112 96.0428 69.5751L103.545 61.6035C103.381 61.2266 103.186 60.8782 102.933 60.6222C101.525 59.2142 97.8277 59.1786 96.4624 60.6293L88.5655 69.0168L94.0802 70.1866Z" fill="#00B871"/>
<path d="M72.1208 95.5732L72.3519 95.3599L68.3412 92.4088C67.975 92.1385 67.7759 91.7581 67.6657 91.3528L62.4212 89.0594C61.639 88.7181 60.7252 88.8888 60.1208 89.4932C59.2888 90.3252 59.3919 91.7048 60.3412 92.4052L66.4034 96.871C66.663 97.0594 66.887 97.2905 67.0754 97.5465L71.207 103.211C71.9003 104.163 73.2799 104.27 74.1119 103.435C74.7163 102.83 74.8905 101.916 74.5457 101.131L72.1208 95.5732Z" fill="#00B871"/>
<path d="M94.1155 85.9589C93.4293 84.8425 91.8933 84.6327 90.9333 85.5216L87.5698 88.6469L95.0613 102.499C95.7653 103.644 97.3511 103.829 98.3004 102.88C98.7129 102.467 98.88 101.87 98.7484 101.305L96.0889 89.6033L94.1155 85.9589Z" fill="#00B871"/>
<path d="M51.5557 92.4443H27.5557C24.1246 92.4443 21.3335 89.6532 21.3335 86.2221V45.3332C21.3335 43.8612 22.5282 42.6665 24.0002 42.6665H89.7779C91.2499 42.6665 92.4446 43.8612 92.4446 45.3332V54.2221H87.1113V47.9998H26.6668V86.2221C26.6668 86.7127 27.0651 87.111 27.5557 87.111H51.5557V92.4443Z" fill="#161E2E"/>
<path d="M87.444 46.6201L76.7062 27.1286C76.5497 26.8406 76.2511 26.6663 75.9275 26.6663H37.0404C36.7062 26.6663 36.4004 26.8512 36.2475 27.1535L26.3773 46.5419L21.6271 44.1241L31.4973 24.7321C32.564 22.6343 34.6902 21.333 37.0404 21.333H75.9311C78.1995 21.333 80.2902 22.5668 81.3817 24.5543L92.1195 44.0459L87.444 46.6201Z" fill="#161E2E"/>
<path d="M54.2222 24H59.5555V45.3333H54.2222V24Z" fill="#161E2E"/>
<path d="M72.7606 106.666C72.6433 106.666 72.5259 106.663 72.405 106.652C71.0682 106.549 69.845 105.87 69.0557 104.786L64.9242 99.1216L58.7624 94.5563C57.6815 93.7598 57.0059 92.5367 56.9064 91.2034C56.8068 89.87 57.2904 88.558 58.2397 87.6123C59.6299 86.2185 61.7028 85.8345 63.4948 86.6203L67.317 88.2914L75.5624 79.4025L60.1953 71.2674C58.805 70.4354 57.9837 69.1625 57.8059 67.7047C57.6246 66.2434 58.1224 64.814 59.1606 63.7758C60.213 62.7269 61.7064 62.2896 63.1535 62.6025L86.3286 67.5092L94.5277 58.8016C95.6406 57.6176 97.4682 56.9172 99.5304 56.8887C101.635 56.7465 103.616 57.5287 104.821 58.7376C106.03 59.9429 106.702 61.8736 106.673 64.0354C106.641 66.0976 105.945 67.9216 104.761 69.0416L96.0282 77.2692L101.358 100.711C101.699 102.176 101.265 103.694 100.195 104.764C99.1677 105.799 97.7633 106.304 96.2913 106.122C94.8406 105.952 93.5642 105.141 92.7997 103.897L84.1953 87.9927L75.3277 96.238L76.9988 100.067C77.7775 101.838 77.3757 103.95 76.0068 105.322C75.1393 106.186 73.973 106.666 72.7606 106.666ZM96.149 101.898C96.1526 101.898 96.1526 101.902 96.1526 101.906L96.149 101.898ZM84.341 82.3003C84.5579 82.3003 84.7713 82.3145 84.9917 82.3465C86.4033 82.5385 87.6406 83.3456 88.3908 84.5616L94.9793 96.7358L90.7553 78.1474C90.3677 76.5225 90.8939 74.7732 92.1348 73.6105L101.081 65.1767C101.447 64.6825 101.418 62.9616 101.038 62.4887C100.593 62.1367 98.8548 62.1189 98.3819 62.4852L89.9908 71.3989C88.8637 72.6078 87.1535 73.1483 85.5108 72.7856L67.093 68.8852L78.837 75.1003C80.1953 75.9145 81.013 77.1518 81.2157 78.574C81.4184 79.9963 80.9739 81.4114 79.9962 82.4638L69.941 93.3012C69.1659 94.1332 67.9535 94.3785 66.9188 93.9305L66.9117 93.9269L67.989 94.7198C68.469 95.0718 68.8922 95.4949 69.2442 95.9785L69.6282 96.5083C69.2513 95.4985 69.5144 94.3572 70.3073 93.6176L81.1233 83.5625C82.005 82.7447 83.1535 82.3003 84.341 82.3003ZM95.9428 76.9349L95.9464 76.9456C95.9428 76.9456 95.9428 76.9385 95.9428 76.9349ZM62.0264 67.8185H62.037H62.0264ZM86.6237 67.5732H86.6308C86.6273 67.5767 86.6273 67.5767 86.6237 67.5732Z" fill="#161E2E"/>
</symbol>

<symbol id="drone" width="128" height="128" viewBox="0 0 128 128" fill="none" xmlns="http://www.w3.org/2000/svg">
<path d="M29.7848 14.816C54.3786 14.816 71.2675 2.07642 83.1181 2.07642C94.9688 2.07642 119.858 8.88886 119.858 63.4062C119.858 117.924 86.375 125.924 73.3404 125.924C12.3021 125.927 -13.7708 14.816 29.7848 14.816Z" fill="#F7F7F8"/>
<path d="M37.2283 18.3459L42.2566 13.3176L44.7708 15.8318L39.7425 20.8601L37.2283 18.3459Z" fill="#D2D6DC"/>
<path d="M22.7715 32.7969L27.7998 27.7686L30.314 30.2827L25.2856 35.311L22.7715 32.7969Z" fill="#D2D6DC"/>
<path d="M22.7747 15.1965L25.2888 12.6824L30.3171 17.7107L27.803 20.2249L22.7747 15.1965Z" fill="#D2D6DC"/>
<path d="M107.26 40.4301C104.32 40.4301 101.927 38.0372 101.927 35.0968C101.927 32.1563 104.32 29.7634 107.26 29.7634C110.201 29.7634 112.594 32.1563 112.594 35.0968C112.594 38.0372 110.201 40.4301 107.26 40.4301ZM107.26 33.319C106.283 33.319 105.483 34.1154 105.483 35.0968C105.483 36.0781 106.283 36.8745 107.26 36.8745C108.238 36.8745 109.038 36.0781 109.038 35.0968C109.038 34.1154 108.238 33.319 107.26 33.319Z" fill="#D2D6DC"/>
<path d="M79.111 104H48.8887C46.9261 104 45.3332 102.407 45.3332 100.444V73.7777C45.3332 71.8151 46.9261 70.2222 48.8887 70.2222H79.111C81.0736 70.2222 82.6665 71.8151 82.6665 73.7777V100.444C82.6665 102.407 81.0736 104 79.111 104Z" fill="#F7F7F8"/>
<path d="M57.7776 70.2222H70.222V80.8888H57.7776V70.2222Z" fill="#F7F7F8"/>
<path d="M95.111 54.2222C95.111 37.5324 81.1803 24 63.9999 24C46.8195 24 32.8888 37.5324 32.8888 54.2222H95.111Z" fill="#2FDF84"/>
<path d="M53.3332 100.444V73.7777C53.3332 71.8151 54.9261 70.2222 56.8887 70.2222H48.8887C46.9261 70.2222 45.3332 71.8151 45.3332 73.7777V100.444C45.3332 102.407 46.9261 104 48.8887 104H56.8887C54.9261 104 53.3332 102.407 53.3332 100.444Z" fill="#D2D6DC"/>
<path d="M57.7776 70.2222H65.7776V80.8888H57.7776V70.2222Z" fill="#D2D6DC"/>
<path d="M67.9999 24.2773C66.6879 24.1138 65.3581 24 63.9999 24C46.8159 24 32.8888 37.5324 32.8888 54.2222H40.8888C40.8888 38.8516 52.711 26.1867 67.9999 24.2773Z" fill="#00B871"/>
<path d="M79.1111 106.667H48.8888C45.4577 106.667 42.6666 103.875 42.6666 100.444V73.7776C42.6666 70.3465 45.4577 67.5554 48.8888 67.5554H79.1111C82.5422 67.5554 85.3333 70.3465 85.3333 73.7776V100.444C85.3333 103.875 82.5422 106.667 79.1111 106.667ZM48.8888 72.8888C48.3982 72.8888 48 73.287 48 73.7776V100.444C48 100.935 48.3982 101.333 48.8888 101.333H79.1111C79.6017 101.333 80 100.935 80 100.444V73.7776C80 73.287 79.6017 72.8888 79.1111 72.8888H48.8888Z" fill="#161E2E"/>
<path d="M70.2221 83.5554H57.7777C56.3057 83.5554 55.111 82.3608 55.111 80.8888V70.2221C55.111 68.7501 56.3057 67.5554 57.7777 67.5554H70.2221C71.6941 67.5554 72.8888 68.7501 72.8888 70.2221V80.8888C72.8888 82.3608 71.6941 83.5554 70.2221 83.5554ZM60.4444 78.2221H67.5555V72.8888H60.4444V78.2221Z" fill="#161E2E"/>
<path d="M68.4444 94.2222H75.5555V99.5555H68.4444V94.2222Z" fill="#161E2E"/>
<path d="M81.2806 71.49L91.9371 53.7015L96.5161 56.4447L85.8596 74.2332L81.2806 71.49Z" fill="#161E2E"/>
<path d="M31.4929 56.4976L36.0552 53.7421L46.7205 71.4008L42.1583 74.1563L31.4929 56.4976Z" fill="#161E2E"/>
<path d="M49.136 56.2905L53.904 53.9065L61.0115 68.1215L56.2435 70.5055L49.136 56.2905Z" fill="#161E2E"/>
<path d="M66.9102 68.1572L74.0177 53.9422L78.7857 56.3262L71.6782 70.5412L66.9102 68.1572Z" fill="#161E2E"/>
<path d="M95.1111 56.8888H32.8889C31.4169 56.8888 30.2222 55.6941 30.2222 54.2221C30.2222 36.0853 45.376 21.3333 64 21.3333C82.624 21.3333 97.7778 36.0853 97.7778 54.2221C97.7778 55.6941 96.5831 56.8888 95.1111 56.8888ZM35.6871 51.5555H92.3129C90.9226 37.607 78.7591 26.6666 64 26.6666C49.2409 26.6666 37.0773 37.607 35.6871 51.5555Z" fill="#161E2E"/>
</symbol>

<symbol id="container" width="128" height="128" viewBox="0 0 128 128" fill="none" xmlns="http://www.w3.org/2000/svg">
<g clip-path="url(#clip0_3728_2686)">
<path d="M124.103 72.3733C110.656 51.7831 112.085 30.6773 105.604 20.7538C99.1219 10.8302 79.8045 -6.27913 34.1619 23.5342C-11.4808 53.3475 0.128082 85.7564 7.26053 96.6684C40.6401 147.769 147.922 108.839 124.103 72.3733V72.3733Z" fill="#F7F7F8"/>
<path d="M93.3333 43.5556C90.3929 43.5556 88 41.1627 88 38.2222C88 35.2818 90.3929 32.8889 93.3333 32.8889C96.2738 32.8889 98.6667 35.2818 98.6667 38.2222C98.6667 41.1627 96.2738 43.5556 93.3333 43.5556ZM93.3333 36.4445C92.352 36.4445 91.5556 37.2445 91.5556 38.2222C91.5556 39.2 92.352 40 93.3333 40C94.3147 40 95.1111 39.2 95.1111 38.2222C95.1111 37.2445 94.3147 36.4445 93.3333 36.4445Z" fill="#D2D6DC"/>
<path d="M0.62636 2.51758L3.14052 0.00342096L8.16883 5.03174L5.65468 7.54589L0.62636 2.51758Z" fill="#D2D6DC"/>
<path d="M15.0782 16.9614L17.5923 14.4473L22.6206 19.4756L20.1065 21.9897L15.0782 16.9614Z" fill="#D2D6DC"/>
<path d="M-0.00121307 19.4839L5.0271 14.4556L7.54126 16.9697L2.51294 21.998L-0.00121307 19.4839Z" fill="#D2D6DC"/>
<path d="M14.4583 5.03052L19.4867 0.00220256L22.0008 2.51636L16.9725 7.54468L14.4583 5.03052Z" fill="#D2D6DC"/>
<path d="M73.778 56H102.222V80.8889H73.778V56Z" fill="#2FDF84"/>
<path d="M73.778 56H102.222V80.8889H73.778V56Z" fill="#2FDF84"/>
<path d="M45.3332 56H73.7777V80.8889H45.3332V56Z" fill="#2FDF84"/>
<path d="M45.3332 31.1111H73.7777V56H45.3332V31.1111Z" fill="#2FDF84"/>
<path d="M45.3332 31.1111H73.7777V56H45.3332V31.1111Z" fill="#2FDF84"/>
<path d="M27.5556 38.2222H38.2223V80.8888H27.5556V38.2222Z" fill="#2FDF84"/>
<path d="M24 80.8889H104V84.2525C104 88.1245 101.643 91.6089 98.0444 93.0454C93.5858 94.8302 90.6596 99.1431 90.6453 103.943V103.996H24V80.8889Z" fill="#F7F7F8"/>
<path d="M73.7776 56H81.7776V80.8889H73.7776V56Z" fill="#00B871"/>
<path d="M45.3332 56H53.3332V80.8889H45.3332V56Z" fill="#00B871"/>
<path d="M45.3332 31.1111H53.3332V56H45.3332V31.1111Z" fill="#00B871"/>
<path d="M24 80.8889H32V104H24V80.8889Z" fill="#D2D6DC"/>
<path d="M102.222 83.5557H73.7775C72.3055 83.5557 71.1108 82.3611 71.1108 80.8891V56.0002C71.1108 54.5282 72.3055 53.3335 73.7775 53.3335H102.222C103.694 53.3335 104.889 54.5282 104.889 56.0002V80.8891C104.889 82.3611 103.694 83.5557 102.222 83.5557ZM76.4442 78.2224H99.5553V58.6668H76.4442V78.2224Z" fill="#161E2E"/>
<path d="M80 63.1113H85.3333V73.778H80V63.1113Z" fill="#161E2E"/>
<path d="M102.222 83.5557H73.7775C72.3055 83.5557 71.1108 82.3611 71.1108 80.8891V56.0002C71.1108 54.5282 72.3055 53.3335 73.7775 53.3335H102.222C103.694 53.3335 104.889 54.5282 104.889 56.0002V80.8891C104.889 82.3611 103.694 83.5557 102.222 83.5557ZM76.4442 78.2224H99.5553V58.6668H76.4442V78.2224Z" fill="#161E2E"/>
<path d="M90.6664 63.1113H95.9997V73.778H90.6664V63.1113Z" fill="#161E2E"/>
<path d="M80 63.1113H85.3333V73.778H80V63.1113Z" fill="#161E2E"/>
<path d="M73.7775 83.5557H45.3331C43.8611 83.5557 42.6664 82.3611 42.6664 80.8891V56.0002C42.6664 54.5282 43.8611 53.3335 45.3331 53.3335H73.7775C75.2495 53.3335 76.4442 54.5282 76.4442 56.0002V80.8891C76.4442 82.3611 75.2495 83.5557 73.7775 83.5557ZM47.9998 78.2224H71.1109V58.6668H47.9998V78.2224Z" fill="#161E2E"/>
<path d="M51.5556 63.1113H56.8889V73.778H51.5556V63.1113Z" fill="#161E2E"/>
<path d="M73.7775 83.5557H45.3331C43.8611 83.5557 42.6664 82.3611 42.6664 80.8891V56.0002C42.6664 54.5282 43.8611 53.3335 45.3331 53.3335H73.7775C75.2495 53.3335 76.4442 54.5282 76.4442 56.0002V80.8891C76.4442 82.3611 75.2495 83.5557 73.7775 83.5557ZM47.9998 78.2224H71.1109V58.6668H47.9998V78.2224Z" fill="#161E2E"/>
<path d="M62.222 63.1113H67.5553V73.778H62.222V63.1113Z" fill="#161E2E"/>
<path d="M51.5556 63.1113H56.8889V73.778H51.5556V63.1113Z" fill="#161E2E"/>
<path d="M73.7775 58.6668H45.3331C43.8611 58.6668 42.6664 57.4721 42.6664 56.0001V31.1112C42.6664 29.6392 43.8611 28.4446 45.3331 28.4446H73.7775C75.2495 28.4446 76.4442 29.6392 76.4442 31.1112V56.0001C76.4442 57.4721 75.2495 58.6668 73.7775 58.6668ZM47.9998 53.3335H71.1109V33.7779H47.9998V53.3335Z" fill="#161E2E"/>
<path d="M51.5556 38.2224H56.8889V48.8891H51.5556V38.2224Z" fill="#161E2E"/>
<path d="M73.7775 58.6668H45.3331C43.8611 58.6668 42.6664 57.4721 42.6664 56.0001V31.1112C42.6664 29.6392 43.8611 28.4446 45.3331 28.4446H73.7775C75.2495 28.4446 76.4442 29.6392 76.4442 31.1112V56.0001C76.4442 57.4721 75.2495 58.6668 73.7775 58.6668ZM47.9998 53.3335H71.1109V33.7779H47.9998V53.3335Z" fill="#161E2E"/>
<path d="M62.222 38.2224H67.5553V48.8891H62.222V38.2224Z" fill="#161E2E"/>
<path d="M51.5556 38.2224H56.8889V48.8891H51.5556V38.2224Z" fill="#161E2E"/>
<path d="M38.2221 83.5557H27.5555C26.0835 83.5557 24.8888 82.361 24.8888 80.889V38.2223C24.8888 36.7503 26.0835 35.5557 27.5555 35.5557H38.2221C39.6941 35.5557 40.8888 36.7503 40.8888 38.2223V80.889C40.8888 82.361 39.6941 83.5557 38.2221 83.5557ZM30.2221 78.2223H35.5555V40.889H30.2221V78.2223Z" fill="#161E2E"/>
<path d="M30.222 21.3335H35.5554V40.889H30.222V21.3335Z" fill="#161E2E"/>
<path d="M90.6488 106.667H23.9999C22.5279 106.667 21.3332 105.472 21.3332 104V80.8891C21.3332 79.4171 22.5279 78.2224 23.9999 78.2224H104C105.472 78.2224 106.667 79.4171 106.667 80.8891V84.2526C106.667 89.2446 103.669 93.6713 99.0363 95.5237C95.5696 96.914 93.3261 100.221 93.3154 103.954C93.3119 105.422 92.1172 106.667 90.6488 106.667ZM26.6665 101.334H88.2274C89.1234 96.498 92.391 92.4375 97.0523 90.5744C99.6514 89.5362 101.333 87.0544 101.333 84.2562V83.5557H26.6665V101.334Z" fill="#161E2E"/>
<path d="M24 88.8892H100.558V94.2225H24V88.8892Z" fill="#161E2E"/>
</g>
<defs>
<clipPath id="clip0_3728_2686">
<rect width="128" height="128" fill="white"/>
</clipPath>
</defs>
</symbol>

<symbol id="services-section-image" width="254" height="186" viewBox="0 0 254 186" fill="none" xmlns="http://www.w3.org/2000/svg">
<circle cx="272.5" cy="-86.5" r="272.5" fill="#2FDF84"/>
<circle cx="273" cy="-86" r="179" fill="#00B871"/>
</symbol>

<symbol id="services-section-image-small" width="78" height="110" viewBox="0 0 78 110" fill="none" xmlns="http://www.w3.org/2000/svg">
<circle cx="125" cy="-15" r="125" fill="#2FDF84"/>
<circle cx="125.229" cy="-14.7705" r="82.1101" fill="#00B871"/>
</symbol>


<symbol id="price-image" width="316" height="263" viewBox="0 0 316 263" fill="none" xmlns="http://www.w3.org/2000/svg">
<circle cx="43.5" cy="-9.5" r="272.5" fill="#2FDF84"/>
<circle cx="44" cy="-9" r="179" fill="#00B871"/>
</symbol>

<symbol id="price-image-small" width="74" height="82" viewBox="0 0 74 82" fill="none" xmlns="http://www.w3.org/2000/svg">
<circle cx="-0.5" cy="7.5" r="74.5" fill="#2FDF84"/>
<circle cx="-0.363411" cy="7.63671" r="48.9376" fill="#00B871"/>
</symbol>

<symbol id="popular-icon" width="74" height="20" viewBox="0 0 74 20" fill="none" xmlns="http://www.w3.org/2000/svg">
<rect width="74" height="20" rx="4" fill="#F4FBF7"/>
<path d="M15.5 5.41663L16.9162 8.28579L20.0833 8.74871L17.7917 10.9808L18.3325 14.1341L15.5 12.6445L12.6675 14.1341L13.2083 10.9808L10.9167 8.74871L14.0837 8.28579L15.5 5.41663Z" fill="#00B871"/>
<path d="M26.6321 14H28.1697V11.642H29.4624C31.1349 11.642 32.108 10.6442 32.108 9.19176C32.108 7.74645 31.1527 6.72727 29.5014 6.72727H26.6321V14ZM28.1697 10.4098V7.98438H29.2067C30.0945 7.98438 30.5241 8.46733 30.5241 9.19176C30.5241 9.91264 30.0945 10.4098 29.2138 10.4098H28.1697ZM35.4549 14.1065C37.1097 14.1065 38.1396 12.9737 38.1396 11.294C38.1396 9.60369 37.1097 8.47443 35.4549 8.47443C33.8001 8.47443 32.7702 9.60369 32.7702 11.294C32.7702 12.9737 33.8001 14.1065 35.4549 14.1065ZM35.462 12.9347C34.6985 12.9347 34.3079 12.2351 34.3079 11.2834C34.3079 10.3317 34.6985 9.62855 35.462 9.62855C36.2113 9.62855 36.6019 10.3317 36.6019 11.2834C36.6019 12.2351 36.2113 12.9347 35.462 12.9347ZM39.1232 16.0455H40.636V13.1264H40.6822C40.8917 13.581 41.3498 14.0888 42.2305 14.0888C43.4734 14.0888 44.4428 13.1051 44.4428 11.2798C44.4428 9.40483 43.4308 8.47443 42.234 8.47443C41.3214 8.47443 40.8846 9.01776 40.6822 9.46165H40.6147V8.54545H39.1232V16.0455ZM40.604 11.2727C40.604 10.2997 41.016 9.67827 41.7511 9.67827C42.5004 9.67827 42.8981 10.3281 42.8981 11.2727C42.8981 12.2244 42.4933 12.8849 41.7511 12.8849C41.0231 12.8849 40.604 12.2457 40.604 11.2727ZM48.9492 11.6776C48.9528 12.4091 48.4521 12.7926 47.9087 12.7926C47.337 12.7926 46.9677 12.3913 46.9641 11.7486V8.54545H45.4513V12.0185C45.4549 13.2933 46.2006 14.071 47.2979 14.071C48.1183 14.071 48.7077 13.6484 48.9528 13.0092H49.0096V14H50.462V8.54545H48.9492V11.6776ZM53.1848 6.72727H51.6721V14H53.1848V6.72727ZM55.9521 14.103C56.7582 14.103 57.2802 13.7514 57.5465 13.2436H57.5891V14H59.0238V10.321C59.0238 9.02131 57.9229 8.47443 56.7085 8.47443C55.4016 8.47443 54.5423 9.09943 54.3327 10.0938L55.7319 10.2074C55.8349 9.84517 56.158 9.57884 56.7013 9.57884C57.2163 9.57884 57.511 9.83807 57.511 10.2855V10.3068C57.511 10.6584 57.1381 10.7045 56.19 10.7969C55.1104 10.8963 54.141 11.2585 54.141 12.4766C54.141 13.5561 54.9116 14.103 55.9521 14.103ZM56.3853 13.0589C55.9201 13.0589 55.5863 12.8423 55.5863 12.4268C55.5863 12.0007 55.9379 11.7912 56.4705 11.7166C56.8008 11.6705 57.3406 11.5923 57.5217 11.4716V12.0504C57.5217 12.6222 57.0494 13.0589 56.3853 13.0589ZM60.1974 14H61.7102V10.9141C61.7102 10.2429 62.2003 9.78125 62.8679 9.78125C63.0774 9.78125 63.3651 9.81676 63.5071 9.86293V8.5206C63.3722 8.48864 63.1839 8.46733 63.0312 8.46733C62.4205 8.46733 61.9197 8.82244 61.7209 9.49716H61.6641V8.54545H60.1974V14Z" fill="#00B871"/>
</symbol>

<symbol id="faq-image" width="278" height="165" viewBox="0 0 278 165" fill="none" xmlns="http://www.w3.org/2000/svg">
<circle cx="272.5" cy="-107.5" r="272.5" fill="#2FDF84"/>
<circle cx="273" cy="-107" r="179" fill="#00B871"/>
</symbol>

<symbol id="faq-image-small" width="40" height="52" viewBox="0 0 40 52" fill="none" xmlns="http://www.w3.org/2000/svg">
<circle cx="39.5" cy="12.5" r="39.5" fill="#2FDF84"/>
<circle cx="39.5725" cy="12.5725" r="25.9468" fill="#00B871"/>
</symbol>

<symbol id="facebook" width="24" height="24" viewBox="0 0 24 24" fill="none" xmlns="http://www.w3.org/2000/svg">
<path d="M15.12 5.32003H17V2.14003C16.0897 2.04538 15.1751 1.99865 14.26 2.00003C11.54 2.00003 9.67999 3.66003 9.67999 6.70003V9.32003H6.60999V12.88H9.67999V22H13.36V12.88H16.42L16.88 9.32003H13.36V7.05003C13.36 6.00003 13.64 5.32003 15.12 5.32003Z" fill="#161E2E"/>
</symbol>

<symbol id="twitter" width="24" height="24" viewBox="0 0 24 24" fill="none" xmlns="http://www.w3.org/2000/svg">
<path d="M22.9912 3.95021C22.9913 3.77357 22.9446 3.60007 22.8558 3.44735C22.7671 3.29464 22.6394 3.16817 22.4859 3.08084C22.3324 2.9935 22.1584 2.94842 21.9818 2.95017C21.8052 2.95193 21.6322 3.00046 21.4804 3.09083C20.8951 3.43921 20.265 3.70601 19.6074 3.88383C18.6684 3.07806 17.4708 2.63713 16.2334 2.64164C14.876 2.6432 13.5723 3.17223 12.5976 4.11702C11.623 5.06181 11.0536 6.3484 11.0098 7.70512C8.33378 7.27838 5.90843 5.88164 4.19625 3.78126C4.09308 3.65609 3.96133 3.55757 3.81211 3.494C3.66288 3.43043 3.50056 3.40368 3.33883 3.41601C3.17719 3.42932 3.02122 3.4818 2.88442 3.56892C2.74762 3.65603 2.63409 3.77516 2.55367 3.91601C2.1412 4.63582 1.9043 5.44276 1.86222 6.27131C1.82014 7.09986 1.97406 7.92666 2.31148 8.68456L2.30953 8.68651C2.15788 8.77991 2.03272 8.91066 1.94603 9.06625C1.85935 9.22185 1.81403 9.39708 1.81441 9.57519C1.81257 9.72211 1.82139 9.86898 1.84078 10.0146C1.94292 11.2729 2.50056 12.4507 3.40914 13.3271C3.3475 13.4446 3.30988 13.5731 3.29848 13.7052C3.28708 13.8373 3.30212 13.9704 3.34273 14.0967C3.73884 15.3308 4.58123 16.3727 5.70504 17.0185C4.56328 17.46 3.33046 17.614 2.11519 17.4668C1.89026 17.4386 1.66242 17.4876 1.46904 17.6059C1.27566 17.7242 1.12822 17.9047 1.0509 18.1178C0.973592 18.3309 0.970999 18.5639 1.04355 18.7787C1.1161 18.9935 1.25949 19.1772 1.45019 19.2998C3.54028 20.646 5.97387 21.3617 8.45996 21.3613C11.2792 21.393 14.0299 20.4921 16.2842 18.7988C18.5385 17.1054 20.1699 14.7145 20.9248 11.998C21.2778 10.8146 21.4581 9.58648 21.46 8.35157C21.46 8.28614 21.46 8.21876 21.459 8.15138C21.9811 7.58831 22.3855 6.92668 22.6486 6.20527C22.9117 5.48387 23.0282 4.7172 22.9912 3.95021ZM19.6845 7.16212C19.5194 7.35746 19.4358 7.60891 19.4511 7.86427C19.4609 8.02927 19.4599 8.19527 19.4599 8.35157C19.4579 9.39511 19.3049 10.4329 19.0058 11.4326C18.3893 13.744 17.015 15.7817 15.1029 17.2192C13.1908 18.6568 10.8516 19.4111 8.45996 19.3613C7.60084 19.3616 6.74468 19.2606 5.90918 19.0606C6.97459 18.7172 7.97077 18.1879 8.85156 17.4971C9.01378 17.3693 9.13251 17.1945 9.19145 16.9967C9.25038 16.7988 9.24664 16.5875 9.18073 16.3918C9.11483 16.1961 8.98999 16.0257 8.82334 15.9038C8.65669 15.7819 8.4564 15.7145 8.24996 15.7109C7.41879 15.698 6.62509 15.363 6.03609 14.7764C6.18551 14.7481 6.33395 14.7129 6.48141 14.6709C6.69742 14.6094 6.88645 14.477 7.01807 14.295C7.14969 14.1131 7.21623 13.8921 7.20698 13.6677C7.19773 13.4433 7.11324 13.2285 6.96709 13.058C6.82095 12.8874 6.62167 12.7711 6.40133 12.7275C5.91887 12.6323 5.46487 12.427 5.07464 12.1277C4.68441 11.8284 4.36845 11.4432 4.15133 11.002C4.33206 11.0266 4.51394 11.0419 4.69625 11.0479C4.91283 11.0511 5.12484 10.9854 5.30162 10.8603C5.47841 10.7351 5.6108 10.5569 5.67965 10.3516C5.74563 10.1443 5.74223 9.92123 5.66998 9.7161C5.59772 9.51096 5.46055 9.33499 5.27926 9.21485C4.83941 8.92182 4.4791 8.52427 4.23061 8.0578C3.98213 7.59134 3.85322 7.07052 3.85543 6.54201C3.85543 6.47561 3.85738 6.4092 3.86129 6.34377C6.10255 8.43402 9.00961 9.66621 12.0703 9.82326C12.2248 9.82934 12.3786 9.80024 12.5202 9.73816C12.6618 9.67607 12.7875 9.58262 12.8877 9.46486C12.9869 9.34596 13.0571 9.20566 13.0928 9.05501C13.1286 8.90437 13.1289 8.74748 13.0937 8.5967C13.0365 8.35806 13.0073 8.11357 13.0068 7.86818C13.0077 7.01271 13.3479 6.19254 13.9528 5.58764C14.5577 4.98274 15.3779 4.64251 16.2334 4.64161C16.6735 4.64043 17.1091 4.7305 17.5127 4.90615C17.9162 5.0818 18.279 5.3392 18.5781 5.66212C18.6934 5.7862 18.8386 5.87871 18.9998 5.93085C19.161 5.98299 19.3328 5.99303 19.499 5.96001C19.9097 5.88006 20.3146 5.7724 20.7109 5.63775C20.4406 6.19072 20.0952 6.70369 19.6845 7.16212Z" fill="#161E2E"/>
</symbol>

<symbol id="instagram" width="24" height="24" viewBox="0 0 24 24" fill="none" xmlns="http://www.w3.org/2000/svg">
<path d="M17.34 5.46C17.1027 5.46 16.8707 5.53038 16.6733 5.66224C16.476 5.79409 16.3222 5.98151 16.2313 6.20078C16.1405 6.42005 16.1168 6.66133 16.1631 6.89411C16.2094 7.12689 16.3236 7.34071 16.4915 7.50853C16.6593 7.67635 16.8731 7.79064 17.1059 7.83694C17.3387 7.88324 17.5799 7.85948 17.7992 7.76866C18.0185 7.67783 18.2059 7.52402 18.3378 7.32668C18.4696 7.12935 18.54 6.89734 18.54 6.66C18.54 6.34174 18.4136 6.03652 18.1885 5.81147C17.9635 5.58643 17.6583 5.46 17.34 5.46ZM21.94 7.88C21.9206 7.0503 21.7652 6.2294 21.48 5.45C21.2257 4.78313 20.83 4.17928 20.32 3.68C19.8248 3.16743 19.2196 2.77418 18.55 2.53C17.7727 2.23616 16.9508 2.07721 16.12 2.06C15.06 2 14.72 2 12 2C9.28 2 8.94 2 7.88 2.06C7.04915 2.07721 6.22734 2.23616 5.45 2.53C4.78168 2.77665 4.17693 3.16956 3.68 3.68C3.16743 4.17518 2.77418 4.78044 2.53 5.45C2.23616 6.22734 2.07721 7.04915 2.06 7.88C2 8.94 2 9.28 2 12C2 14.72 2 15.06 2.06 16.12C2.07721 16.9508 2.23616 17.7727 2.53 18.55C2.77418 19.2196 3.16743 19.8248 3.68 20.32C4.17693 20.8304 4.78168 21.2234 5.45 21.47C6.22734 21.7638 7.04915 21.9228 7.88 21.94C8.94 22 9.28 22 12 22C14.72 22 15.06 22 16.12 21.94C16.9508 21.9228 17.7727 21.7638 18.55 21.47C19.2196 21.2258 19.8248 20.8326 20.32 20.32C20.8322 19.8226 21.2283 19.2182 21.48 18.55C21.7652 17.7706 21.9206 16.9497 21.94 16.12C21.94 15.06 22 14.72 22 12C22 9.28 22 8.94 21.94 7.88ZM20.14 16C20.1327 16.6348 20.0178 17.2637 19.8 17.86C19.6403 18.2952 19.3839 18.6884 19.05 19.01C18.7256 19.3405 18.3332 19.5964 17.9 19.76C17.3037 19.9778 16.6748 20.0927 16.04 20.1C15.04 20.15 14.67 20.16 12.04 20.16C9.41 20.16 9.04 20.16 8.04 20.1C7.38089 20.1123 6.72459 20.0109 6.1 19.8C5.68578 19.6281 5.31136 19.3728 5 19.05C4.66809 18.7287 4.41484 18.3352 4.26 17.9C4.01586 17.2952 3.88044 16.6519 3.86 16C3.86 15 3.8 14.63 3.8 12C3.8 9.37 3.8 9 3.86 8C3.86448 7.35106 3.98295 6.70795 4.21 6.1C4.38605 5.67791 4.65627 5.30166 5 5C5.30381 4.65617 5.67929 4.3831 6.1 4.2C6.70955 3.98004 7.352 3.86508 8 3.86C9 3.86 9.37 3.8 12 3.8C14.63 3.8 15 3.8 16 3.86C16.6348 3.86728 17.2637 3.98225 17.86 4.2C18.3144 4.36865 18.7223 4.64285 19.05 5C19.3777 5.30718 19.6338 5.68273 19.8 6.1C20.0223 6.70893 20.1373 7.35178 20.14 8C20.19 9 20.2 9.37 20.2 12C20.2 14.63 20.19 15 20.14 16ZM12 6.87C10.9858 6.87198 9.99496 7.17453 9.15265 7.73942C8.31035 8.30431 7.65438 9.1062 7.26763 10.0438C6.88089 10.9813 6.78072 12.0125 6.97979 13.0069C7.17886 14.0014 7.66824 14.9145 8.38608 15.631C9.10392 16.3474 10.018 16.835 11.0129 17.0321C12.0077 17.2293 13.0387 17.1271 13.9755 16.7385C14.9123 16.35 15.7129 15.6924 16.2761 14.849C16.8394 14.0056 17.14 13.0142 17.14 12C17.1413 11.3251 17.0092 10.6566 16.7512 10.033C16.4933 9.40931 16.1146 8.84281 15.6369 8.36605C15.1592 7.88929 14.5919 7.51168 13.9678 7.25493C13.3436 6.99818 12.6749 6.86736 12 6.87ZM12 15.33C11.3414 15.33 10.6976 15.1347 10.15 14.7688C9.60234 14.4029 9.17552 13.8828 8.92348 13.2743C8.67144 12.6659 8.6055 11.9963 8.73398 11.3503C8.86247 10.7044 9.17963 10.111 9.64533 9.64533C10.111 9.17963 10.7044 8.86247 11.3503 8.73398C11.9963 8.6055 12.6659 8.67144 13.2743 8.92348C13.8828 9.17552 14.4029 9.60234 14.7688 10.15C15.1347 10.6976 15.33 11.3414 15.33 12C15.33 12.4373 15.2439 12.8703 15.0765 13.2743C14.9092 13.6784 14.6639 14.0454 14.3547 14.3547C14.0454 14.6639 13.6784 14.9092 13.2743 15.0765C12.8703 15.2439 12.4373 15.33 12 15.33Z" fill="#161E2E"/>
</symbol>

<symbol id="contact-us-image" width="205" height="545" viewBox="0 0 205 545" fill="none" xmlns="http://www.w3.org/2000/svg">
<circle cx="272.5" cy="272.5" r="272.5" fill="#2FDF84"/>
<circle cx="273" cy="273" r="179" fill="#00B871"/>
</symbol>

<symbol id="footer-logo" width="66" height="36" viewBox="0 0 66 36" fill="none" xmlns="http://www.w3.org/2000/svg">
<g clip-path="url(#clip0_18_549)">
<path d="M13.5172 20.191C13.6183 20.191 13.6858 20.191 13.7869 20.2247H18.9442C19.0454 20.2247 19.1128 20.2247 19.2139 20.191C19.3824 20.1573 19.5847 20.1236 19.7532 20.0562C20.6297 19.6854 21.1016 18.6741 20.933 17.7977C20.7645 17.0561 20.1914 16.4494 19.4836 16.2471C19.3824 16.2134 19.315 16.2134 19.2139 16.1797C19.1128 16.1797 19.0454 16.1797 18.9442 16.146H13.7869C13.5509 16.146 13.4835 16.146 13.2475 16.2134C13.079 16.2471 12.9105 16.3482 12.7419 16.4494C12.0341 16.8876 11.6296 17.764 11.7981 18.573C11.9666 19.4157 12.7082 20.0562 13.5172 20.191Z" fill="#00B871"/>
<path d="M1.7527 4.01044C1.82011 4.04415 1.92124 4.04415 2.02236 4.04415H7.17973C7.28085 4.04415 7.34827 4.04415 7.44939 4.01044C7.61793 3.97673 7.82018 3.94303 7.98872 3.87561C8.86514 3.50482 9.33705 2.49357 9.16851 1.61716C8.99997 0.875576 8.42693 0.268828 7.71906 0.0665788C7.61793 0.0328706 7.55052 0.0328706 7.44939 -0.000837661C7.34827 -0.000837661 7.28085 -0.000837661 7.17973 -0.0345459H2.02236C1.78641 -0.000837661 1.71899 -0.000837661 1.48303 0.0665788C1.31449 0.100287 1.14595 0.201412 0.977409 0.302536C0.235827 0.740744 -0.134963 1.61716 0.0335777 2.42616C0.202119 3.26886 0.909992 3.90932 1.7527 4.01044Z" fill="#00B871"/>
<path d="M6.26999 16.2471C6.16887 16.2134 6.10145 16.2134 6.00033 16.1797C5.8992 16.1797 5.83178 16.1797 5.73066 16.146H2.93288C2.69692 16.146 2.6295 16.146 2.39354 16.2134C2.225 16.2471 2.05646 16.3482 1.88792 16.4494C1.18005 16.8876 0.775548 17.764 0.94409 18.573C1.11263 19.382 1.8205 20.0562 2.66321 20.1573C2.76433 20.1573 2.83175 20.1573 2.93288 20.191H5.73066C5.83178 20.191 5.8992 20.191 6.00033 20.1573C6.16887 20.1236 6.37112 20.0899 6.53966 20.0224C7.41607 19.6517 7.88799 18.6404 7.71945 17.764C7.5509 17.0561 6.97787 16.4494 6.26999 16.2471Z" fill="#00B871"/>
<path d="M16.3487 31.214C16.2476 31.1803 16.1802 31.1803 16.0791 31.1466C15.9779 31.1466 15.9105 31.1466 15.8094 31.1129H13.0116C12.7757 31.1129 12.7082 31.1129 12.4723 31.1803C12.3037 31.214 12.1352 31.3152 11.9667 31.4163C11.2588 31.8545 10.8543 32.7309 11.0228 33.5399C11.1914 34.3489 11.8992 35.0231 12.7419 35.1242C12.8431 35.1242 12.9105 35.1242 13.0116 35.1579H15.8094C15.9105 35.1579 15.9779 35.1579 16.0791 35.1242C16.2476 35.0905 16.4499 35.0568 16.6184 34.9894C17.4948 34.6186 17.9667 33.6073 17.7982 32.7309C17.6296 32.023 17.0566 31.4163 16.3487 31.214Z" fill="#00B871"/>
<path d="M65.36 9.54041V9.5067C65.36 9.47299 65.36 9.40558 65.36 9.37187C65.3263 9.06849 65.1578 8.76512 64.9555 8.52916C64.8544 8.39433 64.787 8.36062 64.6859 8.29321C64.6522 8.29321 64.6522 8.2595 64.6184 8.2595C64.6184 8.2595 64.5847 8.2595 64.5847 8.22579L50.6969 0.203226C50.6295 0.169518 50.5621 0.13581 50.4947 0.102101C50.2924 0.0346848 50.2587 0.0346848 50.0228 0.000976562C49.9554 0.000976562 49.8879 0.000976562 49.8205 0.000976562C49.7868 0.000976562 49.7868 0.000976562 49.7531 0.000976562H15.8089C15.5729 0.000976562 15.5055 0.000976562 15.2696 0.0683931C15.101 0.102101 14.9325 0.203226 14.7639 0.304351C14.0561 0.742558 13.6516 1.61897 13.8201 2.42797C13.9887 3.23697 14.6965 3.91113 15.5392 4.01226C15.6404 4.01226 15.7078 4.01226 15.8089 4.04597H25.1798C25.2809 4.04597 25.4158 4.07967 25.5169 4.07967C25.5843 4.07967 25.6517 4.11338 25.7191 4.11338C26.427 4.31563 27 4.92238 27.1686 5.66396C27.3708 6.54038 26.8652 7.55162 25.9888 7.92241C25.8203 7.98983 25.6517 8.05725 25.4495 8.05725C25.3483 8.05725 25.2809 8.05725 25.1798 8.09096H2.02223C1.78627 8.09096 1.71886 8.09096 1.4829 8.15837C1.31436 8.19208 1.14582 8.2932 0.977276 8.39433C0.269403 8.83254 -0.135096 9.70895 0.033445 10.5179C0.201986 11.3269 0.909859 12.0011 1.75257 12.1022C1.85369 12.1022 1.92111 12.1022 2.02223 12.1359H29.9327C30.0338 12.1359 30.1686 12.1697 30.2697 12.1697C30.3372 12.1697 30.4046 12.2034 30.472 12.2034C31.1799 12.4056 31.7529 13.0124 31.9214 13.7539C32.1237 14.6304 31.6181 15.6416 30.7417 16.0124C30.5731 16.0798 30.4046 16.1472 30.2023 16.1472C30.1012 16.1472 30.0338 16.1472 29.9327 16.1809H25.7528C25.5169 16.1809 25.4495 16.1809 25.2135 16.2484C25.045 16.2821 24.8764 16.3832 24.7079 16.4843C24 16.9225 23.5955 17.7989 23.764 18.6079C23.9326 19.4169 24.6405 20.0911 25.4832 20.1922C25.5843 20.1922 25.6517 20.1922 25.7528 20.2259H35.9664C36.8766 20.2259 37.5844 19.4843 37.5844 18.6079V12.8775C37.5844 12.6416 37.8541 12.5067 38.0563 12.6079L45.2025 16.754C47.1239 17.8663 48.3037 19.9225 48.3037 22.1473V25.7541C48.3037 28.0462 45.8092 29.4957 43.8205 28.3496L37.9552 24.9451C37.753 24.844 37.6181 24.6417 37.5507 24.4057C37.4159 23.6642 36.7417 23.1248 35.9664 23.1248H10.4156C10.1796 23.1248 10.1122 23.1248 9.87625 23.1922C9.70771 23.226 9.53917 23.3271 9.37063 23.4282C8.66276 23.8664 8.25826 24.7428 8.4268 25.5518C8.59534 26.3608 9.30321 27.035 10.1459 27.1361C10.247 27.1361 10.3145 27.1361 10.4156 27.1698H27.6742C27.7753 27.1698 27.9102 27.2035 28.0113 27.2035C28.0787 27.2035 28.1461 27.2372 28.2135 27.2372C28.9214 27.4395 29.4945 28.0462 29.663 28.7878C29.8652 29.6642 29.3596 30.6755 28.4832 31.0463C28.3147 31.1137 28.1461 31.1811 27.9439 31.1811C27.8427 31.1811 27.7753 31.1811 27.6742 31.2148H22.5843C22.3483 31.2148 22.2809 31.2148 22.0449 31.2822C21.8764 31.3159 21.7078 31.4171 21.5393 31.5182C20.8314 31.9564 20.4269 32.8328 20.5955 33.6418C20.764 34.4508 21.4719 35.125 22.3146 35.2261C22.4157 35.2261 22.4831 35.2261 22.5843 35.2598H49.8205H49.8542C49.8879 35.2598 49.8879 35.2598 49.9217 35.2598C49.9554 35.2598 49.9891 35.2598 50.0228 35.2598C50.0565 35.2598 50.0902 35.2598 50.1576 35.2598C50.2587 35.2261 50.3936 35.2261 50.4947 35.1587C50.5284 35.1587 50.5621 35.125 50.5958 35.0913C50.7307 35.0238 50.8318 34.9564 50.9329 34.889L64.5847 26.9676C64.6522 26.9339 64.7196 26.9002 64.787 26.8327C65.0229 26.6305 65.2252 26.3608 65.3263 26.0575C65.3937 25.8552 65.3937 25.7878 65.3937 25.5855V9.57412C65.36 9.57412 65.36 9.57412 65.36 9.54041ZM50.461 3.70888L60.2364 9.33816C60.4049 9.43929 60.4049 9.70895 60.2364 9.81008L58.315 10.9224C57.9779 11.1247 57.5734 11.1247 57.2701 10.9224L47.5284 5.29317C47.3261 5.15834 47.3261 4.88867 47.5284 4.75384L49.3823 3.67518C49.7194 3.50663 50.1239 3.50663 50.461 3.70888ZM49.3823 15.4731L39.6406 9.84378C39.4384 9.70895 39.4384 9.43929 39.6406 9.30445L41.4946 8.22579C41.8317 8.02354 42.2362 8.02354 42.5733 8.22579L52.3486 13.8551C52.5172 13.9562 52.5172 14.2259 52.3486 14.327L50.4273 15.4394C50.1239 15.6416 49.7194 15.6416 49.3823 15.4731ZM62.2252 24.2709C62.2252 24.5406 62.0903 24.7765 61.8544 24.9114L52.5846 30.271C52.1127 30.5406 51.5059 30.2036 51.5059 29.6305V18.9113C51.5059 18.6416 51.6408 18.4057 51.8767 18.2708L54.3711 16.8214C54.3711 18.6753 54.3711 21.3383 54.3711 22.6529C54.3711 23.0237 54.7756 23.2597 55.079 23.0574L58.9555 20.8327C59.1914 20.6978 59.36 20.4282 59.36 20.1585V13.9562L61.1465 12.9449C61.6184 12.6753 62.2252 13.0124 62.2252 13.5854V24.2709Z" fill="#F4FBF7"/>
</g>
<defs>
<clipPath id="clip0_18_549">
<rect width="65.3603" height="35.1914" fill="white"/>
</clipPath>
</defs>
</symbol>

</svg>